HIERARCHY
ROOT Hips
{
	OFFSET 0.000000 0.000000 0.000000
	CHANNELS 6 Xposition Yposition Zposition Zrotation Yrotation Xrotation 
	JOINT LHipJoint
	{
		OFFSET 0.000000 0.000000 0.000000
		CHANNELS 3 Zrotation Yrotation Xrotation
		JOINT LeftUpLeg
		{
			OFFSET 1.363060 -1.794630 0.839290
			CHANNELS 3 Zrotation Yrotation Xrotation
			JOINT LeftLeg
			{
				OFFSET 2.448110 -6.726130 0.000000
				CHANNELS 3 Zrotation Yrotation Xrotation
				JOINT LeftFoot
				{
					OFFSET 2.562200 -7.039590 0.000000
					CHANNELS 3 Zrotation Yrotation Xrotation
					JOINT LeftToeBase
					{
						OFFSET 0.157640 -0.433110 2.322550
						CHANNELS 3 Zrotation Yrotation Xrotation
						End Site
						{
							OFFSET 0.000000 0.000000 0.000000
						}
					}
				}
			}
		}
	}
	JOINT RHipJoint
	{
		OFFSET 0.000000 0.000000 0.000000
		CHANNELS 3 Zrotation Yrotation Xrotation
		JOINT RightUpLeg
		{
			OFFSET -1.305520 -1.794630 0.839290
			CHANNELS 3 Zrotation Yrotation Xrotation
			JOINT RightLeg
			{
				OFFSET -2.542530 -6.985550 0.000000
				CHANNELS 3 Zrotation Yrotation Xrotation
				JOINT RightFoot
				{
					OFFSET -2.568260 -7.056230 0.000000
					CHANNELS 3 Zrotation Yrotation Xrotation
					JOINT RightToeBase
					{
						OFFSET -0.164730 -0.452590 2.363150
						CHANNELS 3 Zrotation Yrotation Xrotation
						End Site
						{
							OFFSET 0.000000 0.000000 0.000000
						}
					}
				}
			}
		}
	}
	JOINT LowerBack
	{
		OFFSET 0.000000 0.000000 0.000000
		CHANNELS 3 Zrotation Yrotation Xrotation
		JOINT Spine
		{
			OFFSET 0.028270 2.035590 -0.193380
			CHANNELS 3 Zrotation Yrotation Xrotation
			JOINT Spine1
			{
				OFFSET 0.056720 2.048850 -0.042750
				CHANNELS 3 Zrotation Yrotation Xrotation
				JOINT Neck
				{
					OFFSET 0.000000 0.000000 0.000000
					CHANNELS 3 Zrotation Yrotation Xrotation
					JOINT Neck1
					{
						OFFSET -0.054170 1.746240 0.172020
						CHANNELS 3 Zrotation Yrotation Xrotation
						JOINT Head
						{
							OFFSET 0.104070 1.761360 -0.123970
							CHANNELS 3 Zrotation Yrotation Xrotation
							End Site
							{
								OFFSET 0.000000 0.000000 0.000000
							}
						}
					}
				}
				JOINT LeftShoulder
				{
					OFFSET 0.000000 0.000000 0.000000
					CHANNELS 3 Zrotation Yrotation Xrotation
					JOINT LeftArm
					{
						OFFSET 3.362410 1.200890 -0.311210
						CHANNELS 3 Zrotation Yrotation Xrotation
						JOINT LeftForeArm
						{
							OFFSET 4.983000 -0.000000 -0.000000
							CHANNELS 3 Zrotation Yrotation Xrotation
							JOINT LeftHand
							{
								OFFSET 3.483560 -0.000000 -0.000000
								CHANNELS 3 Zrotation Yrotation Xrotation
								JOINT LeftFingerBase
								{
									OFFSET 0.000000 0.000000 0.000000
									CHANNELS 3 Zrotation Yrotation Xrotation
									JOINT LeftHandIndex1
									{
										OFFSET 0.715260 -0.000000 -0.000000
										CHANNELS 3 Zrotation Yrotation Xrotation
										End Site
										{
											OFFSET 0.000000 0.000000 0.000000
										}
									}
								}
								JOINT LThumb
								{
									OFFSET 0.000000 0.000000 0.000000
									CHANNELS 3 Zrotation Yrotation Xrotation
									End Site
									{
										OFFSET 0.000000 0.000000 0.000000
									}
								}
							}
						}
					}
				}
				JOINT RightShoulder
				{
					OFFSET 0.000000 0.000000 0.000000
					CHANNELS 3 Zrotation Yrotation Xrotation
					JOINT RightArm
					{
						OFFSET -3.136600 1.374050 -0.404650
						CHANNELS 3 Zrotation Yrotation Xrotation
						JOINT RightForeArm
						{
							OFFSET -5.241900 -0.000000 -0.000000
							CHANNELS 3 Zrotation Yrotation Xrotation
							JOINT RightHand
							{
								OFFSET -3.444170 -0.000000 -0.000000
								CHANNELS 3 Zrotation Yrotation Xrotation
								JOINT RightFingerBase
								{
									OFFSET 0.000000 0.000000 0.000000
									CHANNELS 3 Zrotation Yrotation Xrotation
									JOINT RightHandIndex1
									{
										OFFSET -0.622530 -0.000000 -0.000000
										CHANNELS 3 Zrotation Yrotation Xrotation
										End Site
										{
											OFFSET 0.000000 0.000000 0.000000
										}
									}
								}
								JOINT RThumb
								{
									OFFSET 0.000000 0.000000 0.000000
									CHANNELS 3 Zrotation Yrotation Xrotation
									End Site
									{
										OFFSET 0.000000 0.000000 0.000000
									}
								}
							}
						}
					}
				}
			}
		}
	}
}
MOTION
Frames: 9
Frame Time: 0.008333
1.177975 14.224569 17.128377 -74.782656 -80.313811 60.358217 24.850221 3.963556 -4.298584 -45.017349 -3.487078 13.746221 17.885056 14.846325 72.573578 -10.582825 -22.498314 -21.655892 0.540000 4.708300 13.078500 -27.979431 -14.240766 9.516009 69.968028 12.216295 -1.209674 -13.607771 -10.377169 49.231561 1.814735 15.771056 -46.296461 -1.171300 -6.869600 19.329600 -5.844447 -0.824367 -0.763741 30.975074 -12.915473 53.695354 -7.998996 -1.421990 -20.538795 -15.894938 -4.103460 -35.009829 6.041094 -5.854281 56.485452 3.146700 -3.523800 15.689100 3.989341 2.185894 2.388136 -102.969624 5.677154 17.849151 34.891087 -48.280727 -6.135231 3.290682 8.700365 0.230260 16.870354 26.211708 4.224600 -7.125000 0.000000 0.000000 -13.416500 47.369700 -0.798200 -10.156824 -5.755191 0.648055 96.790091 -1.487891 11.831250 -37.505551 49.530352 -7.820088 -3.700518 -1.434789 -12.868812 -28.352349 8.762824 -4.441100 7.125000 0.000000 0.000000 1.819600 -19.192100 1.120900 
1.094427 14.226991 17.124019 -74.594676 -80.111381 60.141188 25.025787 4.211402 -3.587245 -44.950379 -4.612396 12.087787 18.068299 14.949017 74.339626 -10.524662 -22.615039 -22.794591 0.391300 4.016600 11.123500 -27.791498 -14.173836 8.758603 69.991157 11.241771 -0.440250 -13.500036 -10.420574 48.888996 1.654738 15.673260 -46.690376 -1.122300 -6.729400 18.916100 -6.327507 -0.844771 -0.569553 32.009342 -13.168196 53.015756 -8.010740 -1.448020 -20.399459 -15.982927 -4.030219 -34.771346 5.860780 -5.693146 56.559618 3.156200 -3.529000 15.699600 3.816678 2.174971 2.420192 -103.132654 5.759364 18.217021 35.076395 -48.610609 -6.300851 3.521635 9.190737 -0.549747 18.103855 28.472799 4.968700 -7.125000 0.000000 0.000000 -13.203100 49.319600 -1.428800 -10.295466 -5.703030 0.704903 96.475228 -1.454084 11.958880 -37.588425 49.534022 -7.831188 -3.656531 -1.476242 -12.797210 -28.086597 8.532000 -4.312400 7.125000 0.000000 0.000000 1.975600 -19.413500 1.207300 
1.010073 14.231430 17.117319 -74.323863 -80.047945 59.694413 25.080497 4.444934 -2.765022 -44.906388 -5.725229 10.549632 18.228810 15.036828 75.957738 -10.424713 -22.699283 -23.963939 0.280200 3.404600 9.407300 -27.721627 -14.142603 7.923656 69.907132 9.809635 0.434387 -13.384853 -10.444631 48.422405 1.486138 15.571529 -47.081659 -0.887500 -6.005000 16.799000 -6.333178 -0.847188 -0.543616 32.121689 -13.202678 52.996012 -8.013566 -1.474276 -20.324873 -15.772865 -4.046173 -34.627845 5.671869 -5.711676 56.399222 3.056800 -3.566900 15.646900 3.782957 2.201145 2.420581 -103.063011 5.714242 18.501094 35.340240 -48.896132 -6.388665 3.268593 9.308619 -0.863665 17.311318 28.874218 4.834300 -7.125000 0.000000 0.000000 -13.872000 49.526900 -1.575500 -10.328172 -5.719108 0.695420 96.439738 -1.254122 11.966522 -37.469655 49.476823 -7.816088 -3.786117 -1.450060 -12.671524 -28.912363 8.581676 -4.468900 7.125000 0.000000 0.000000 1.474300 -19.319600 0.903800 
0.927414 14.237565 17.112072 -73.583967 -80.355287 58.592407 24.971037 4.670352 -1.787903 -45.138694 -6.831533 9.084669 18.363083 15.152045 77.442721 -9.896634 -22.201705 -25.479933 0.193300 2.831300 7.809500 -27.848257 -14.051557 7.024210 69.656857 8.322003 1.535327 -13.291658 -10.431881 47.874427 1.360028 15.488135 -47.381429 -0.638700 -5.113200 14.231600 -5.973821 -0.779115 -0.634674 31.074080 -12.943397 53.760039 -7.887948 -1.452433 -20.476577 -15.393177 -4.069594 -34.704516 5.683031 -5.840667 56.263630 2.968200 -3.578700 15.609700 3.872277 2.269813 2.375990 -102.851556 5.586164 18.765434 35.592162 -49.149793 -6.461336 3.032211 9.177002 -1.189878 16.625594 28.160673 4.523700 -7.125000 0.000000 0.000000 -14.140500 48.885500 -1.380300 -10.196521 -5.784417 0.625955 96.543633 -1.077923 11.910687 -37.407910 49.525959 -7.833621 -3.862134 -1.461132 -12.680565 -29.438986 8.463329 -4.510100 7.125000 0.000000 0.000000 1.148500 -19.400400 0.701900 
0.843302 14.238130 17.106663 -74.751913 -80.039626 59.412211 25.144004 4.938052 -1.020787 -44.876253 -7.848664 7.681851 18.524204 15.223795 78.882579 -9.234288 -21.462021 -27.145100 0.122600 2.256900 6.216100 -27.566316 -13.812857 6.122731 69.660793 6.921667 2.596526 -13.105436 -10.476986 47.285388 1.291707 15.560571 -47.555779 -0.579800 -4.875700 13.554500 -5.522266 -0.761042 -0.434361 31.259133 -12.958793 53.701843 -8.129995 -1.517290 -20.406244 -15.510860 -4.093003 -34.624985 5.762748 -5.856267 56.204204 3.005000 -3.571500 15.620100 3.819248 2.237054 2.374684 -102.752387 5.581822 19.121028 35.796858 -49.473221 -6.640876 3.404979 9.291109 -1.801414 18.485185 28.887620 5.173200 -7.125000 0.000000 0.000000 -13.064300 49.759000 -1.556400 -10.211652 -5.827236 0.626087 96.436391 -1.040406 11.860467 -37.506020 49.583946 -7.848163 -3.757664 -1.514210 -12.822055 -28.775872 8.242215 -4.313200 7.125000 0.000000 0.000000 1.548800 -19.646100 0.938200 
0.761853 14.233448 17.107148 -75.822039 -79.365544 60.630090 25.548671 5.311348 -0.272156 -44.520992 -9.266557 5.780590 18.702052 15.267418 80.314980 -8.658675 -20.790940 -28.785826 0.074700 1.762700 4.850300 -27.184823 -13.707241 5.397610 69.842727 5.887349 3.106160 -12.894419 -10.514429 46.747741 1.390554 15.921966 -47.508579 -0.677600 -5.263400 14.661300 -5.343725 -0.867833 -0.328567 32.630614 -13.270353 52.785871 -8.652634 -1.675689 -20.169004 -15.821339 -4.112456 -34.391378 5.552329 -5.708586 56.251320 3.016100 -3.580900 15.634400 3.639006 2.132403 2.439103 -102.776343 5.762763 19.309228 36.087164 -49.830912 -6.811900 3.527390 9.428482 -2.057288 19.222383 29.691805 5.562600 -7.125000 0.000000 0.000000 -12.770400 50.543700 -1.769700 -10.405900 -5.839039 0.682133 96.262207 -0.954817 11.740474 -37.403094 49.376275 -7.732089 -3.732134 -1.356177 -12.643856 -28.478920 9.082976 -4.579000 7.125000 0.000000 0.000000 1.750900 -18.902100 1.089800 
0.685652 14.233771 17.118287 -73.880074 -79.140859 59.108101 25.724470 5.645663 0.785506 -44.651569 -11.274290 3.393600 18.873024 15.345650 81.680010 -8.021725 -19.995420 -30.383055 0.038300 1.263900 3.475100 -27.244840 -13.885539 4.739792 69.750526 4.839426 3.333765 -12.748824 -10.490663 46.280445 1.502316 16.299169 -47.582947 -0.667800 -5.226100 14.554500 -5.276088 -1.041245 -0.570773 33.375162 -13.467146 52.236839 -9.119199 -1.849622 -20.098975 -16.092856 -4.255921 -34.186613 5.644767 -5.892314 56.240843 3.017900 -3.656900 15.610000 3.560144 2.038923 2.480201 -102.644012 5.915890 19.786214 36.422786 -50.163201 -6.952074 3.365546 9.398174 -2.393520 18.852977 29.506614 5.427900 -7.125000 0.000000 0.000000 -12.969500 50.358000 -1.738200 -10.488101 -5.899500 0.688712 96.177037 -0.877561 11.507712 -37.280931 49.191356 -7.638083 -3.800408 -1.194867 -12.639402 -28.790308 9.987870 -4.975700 7.125000 0.000000 0.000000 1.593200 -18.057900 1.021300 
0.598311 14.234256 17.084061 -79.672259 -79.082847 64.443012 26.135137 6.178233 1.309915 -44.085468 -11.244111 2.387016 18.904650 15.338388 82.338788 -7.592818 -19.626972 -31.805143 0.042900 1.336100 3.674000 -26.576946 -13.254674 4.049718 69.806529 4.178600 4.334136 -12.635404 -10.612693 46.053963 1.097738 15.734728 -48.137657 -0.444300 -4.276800 11.856600 -4.954100 -0.519350 -0.564672 33.153848 -13.002982 52.679787 -9.059969 -1.440924 -19.950723 -16.274260 -4.476397 -34.089370 6.248692 -6.436158 56.012873 3.071800 -3.778700 15.611200 3.536607 2.135923 2.458854 -102.244756 5.850490 20.474882 36.614948 -50.245448 -7.024878 3.379429 9.180666 -2.598068 19.064287 28.525717 5.291500 -7.125000 0.000000 0.000000 -12.533100 49.629500 -1.450900 -10.508630 -5.799634 0.706331 96.308104 -0.847132 11.215172 -37.385736 49.356042 -7.712942 -3.795286 -1.276213 -13.227525 -28.738924 9.815541 -4.901600 7.125000 0.000000 0.000000 1.633300 -18.207500 1.041600 
0.516782 14.230462 17.078895 -78.793384 -79.420653 63.514353 26.123013 6.451123 2.273092 -44.359904 -12.624691 0.670629 19.047006 15.413419 83.150274 -6.655593 -18.261485 -33.187055 0.167500 2.636400 7.268000 -26.615449 -13.225789 3.400278 69.387257 3.192298 4.864796 -12.555033 -10.674117 46.007631 0.962419 15.665160 -48.586767 -0.279600 -3.400600 9.396200 -4.835408 -0.490199 -0.881404 32.302752 -12.804697 53.276444 -8.923462 -1.400816 -20.068492 -16.231283 -4.577300 -34.204172 6.799806 -6.818164 55.953640 3.133600 -3.813300 15.628800 3.661176 2.197057 2.422702 -102.101333 5.660809 20.446078 36.688512 -50.273846 -6.977411 2.998633 8.868481 -2.230177 17.365072 27.005159 4.540200 -7.125000 0.000000 0.000000 -13.288400 48.185200 -1.061700 -10.373323 -5.854536 0.648742 96.341670 -0.772143 11.198008 -37.426861 49.455080 -7.753338 -3.776124 -1.368476 -13.807914 -28.598708 9.537192 -4.767100 7.125000 0.000000 0.000000 1.724400 -18.470400 1.089800 
